<svg xmlns="http://www.w3.org/2000/svg" width="30" height="26" viewBox="0 0 28 28">
	<path fill="#928595" d="M25 7.18c-.81.36-1.68.6-2.59.71.93-.56 1.65-1.44 1.98-2.5-.87.52-1.84.89-2.87 1.1-.82-.88-2-1.43-3.29-1.43-2.49 0-4.51 2.02-4.51 4.51 0 .35.04.7.12 1.03-3.75-.19-7.08-1.99-9.3-4.72-.4.67-.62 1.45-.62 2.28 0 1.57.8 2.95 2.01 3.76-.74-.02-1.44-.23-2.04-.56v.06c0 2.19 1.56 4.01 3.62 4.43-.38.1-.78.16-1.19.16-.29 0-.57-.03-.85-.08.57 1.79 2.24 3.1 4.22 3.14-1.54 1.21-3.49 1.93-5.6 1.93-.36 0-.72-.02-1.08-.06 2 1.28 4.37 2.03 6.92 2.03 8.3 0 12.84-6.88 12.84-12.84l-.01-.58c.87-.67 1.63-1.47 2.24-2.37"></path>
</svg>